
<svg width="70px" height="63px" viewBox="0 0 70 63" version="1.1" xmlns="http://www.w3.org/2000/svg" xmlns:xlink="http://www.w3.org/1999/xlink">
    <!-- Generator: Sketch 47.1 (45422) - http://www.bohemiancoding.com/sketch -->
    <desc>Created with Sketch.</desc>
    <defs></defs>
    <g id="Главная" stroke="none" stroke-width="1" fill="none" fill-rule="evenodd">
        <g id="Главная-(Desktop-HD)" transform="translate(-120.000000, -9.000000)" fill-rule="nonzero" fill="#E0883A">
            <g id="Header">
                <g id="logo" transform="translate(120.000000, 9.000000)">
                    <path d="M27.6653776,62.2764462 C15.5420255,59.0242193 7.03041056,48.0856126 7.00006777,35.7186551 C6.97659703,26.1524565 13.0519021,16.1693371 21.6345446,11.6708542 C23.5544324,10.6645692 25.3503634,9.9160909 25.6255027,10.0075688 C25.9006415,10.0990461 24.8695765,11.0743652 23.3342474,12.1749443 C16.4116494,17.1373093 12.3663795,25.1809645 12.3663795,33.9835629 C12.3663795,41.4761666 15.0805486,48.0680666 20.3155062,53.2895978 C25.6213068,58.5817885 32.2275688,61.2644751 39.8218849,61.2107891 C42.255112,61.1935891 44.1319893,61.2931685 43.9927239,61.4320772 C43.8534585,61.570986 42.4282263,61.9923907 40.8255421,62.3685288 C37.0890161,63.2454725 31.1219932,63.2037212 27.6653776,62.2764462 L27.6653776,62.2764462 Z M10.3114898,54.682082 C6.52696649,51.4098245 2.77432882,45.8193132 1.21823231,41.1353611 C0.148692111,37.9159751 -0.022154527,36.4715359 0.00211882048,30.8536144 C0.0270152572,25.0914867 0.185440812,23.9160581 1.3399136,20.927929 C5.00873439,11.4318939 12.4009894,4.30478392 21.6436341,1.35246091 C26.219818,-0.109282305 34.1313077,-0.445361983 38.5142028,0.635799963 C42.4517166,1.60709602 49.616865,4.97778754 51.0046057,6.5116441 L52,7.61184251 L50.469818,6.84127817 C46.4986785,4.84150059 41.3476468,3.73655944 36.1881379,3.77773271 C22.859027,3.88410015 11.6116159,11.594504 6.7329736,23.9700423 C4.90608889,28.6042593 4.28383354,36.077766 5.29347615,41.2589192 C6.05986578,45.1917776 9.22039699,51.763853 11.7256337,54.6340815 C12.7629759,55.8225512 13.5216493,56.8837167 13.4115748,56.9922219 C13.3015003,57.1007222 11.9064622,56.0611612 10.3114898,54.682082 Z M33.4448213,56.7505204 C27.2687433,55.7175565 21.1182066,50.9707288 18.3732701,45.1186791 C17.1577103,42.5271751 17.0003614,41.5760027 17.0000002,36.8172614 C16.9997476,33.4892288 17.2375504,31.0528923 17.6245149,30.4189814 C18.156958,29.5467535 18.2517439,29.8985801 18.2650192,32.7964108 C18.2839474,36.9276957 19.7938446,42.0730564 21.7859021,44.7947045 C26.7861202,51.6262556 32.8468557,54.4582521 42.4916631,54.4698765 C45.5212484,54.4734595 48,54.5274713 48,54.5897496 C48,54.6520279 46.4435746,55.1533561 44.5412768,55.703813 C40.2066302,56.9581011 36.6767516,57.2910727 33.4448213,56.7505204 Z M61.6748991,38.4492224 C57.6357138,37.2892961 55.1412918,32.6168433 56.2736784,28.3318812 C57.4694516,23.8070766 61.6899662,21.3520153 66.9033841,22.1486117 C68.9044603,22.4543713 69.0873907,22.6037582 69.0873907,23.9321652 C69.0873907,25.3532398 69.0604092,25.3676757 67.7284339,24.659693 C65.0208632,23.2205607 61.1652854,24.1079787 59.4811475,26.5579258 C59.0569652,27.1749977 58.7099025,28.6603353 58.7099025,29.858676 C58.7099025,35.3615652 63.3244206,38.4377441 68.3620142,36.2930683 C70.2799074,35.4765557 70.2915351,35.485615 69.5252515,37.1992549 C68.7240501,38.990975 65.4028931,39.5197846 61.6748991,38.4492224 L61.6748991,38.4492224 Z M29.2179793,37.2788181 C29.6352885,36.7705243 29.7626623,34.4089745 29.649472,29.2788181 L29.4888739,22 L33.0512982,22.0006999 C37.2913458,22.0015499 38.8564575,22.6189045 39.6734961,24.6128562 C40.4299488,26.4589501 39.8524218,28.3139506 38.1440015,29.5255498 C36.6200685,30.6063121 34.1873718,31.2117032 34.1873718,30.510181 C34.1873718,30.2299712 34.4867185,30.0007049 34.8525861,30.0007049 C35.970425,30.0007049 37.1548441,28.2588879 37.1548441,26.6149848 C37.1548441,24.7911195 35.6751155,23.5012777 33.5827463,23.5012777 L32.2090569,23.5012777 L32.2090569,30.1506917 C32.2090569,34.6558502 32.4004425,36.9935722 32.8025513,37.4000529 C33.264158,37.8666782 32.8660285,38 31.0109671,38 C28.9892352,38 28.7160887,37.8901342 29.2179793,37.2788181 Z M42,29.9999998 L42,22 L47.2214504,22 C51.9246751,22 52.4429028,22.090012 52.4429028,22.9069255 C52.4429028,23.7023669 51.9889117,23.8099269 48.7496798,23.7819254 L45.0564588,23.7500004 L44.8998163,25.8750004 L44.7431738,28.0000003 L47.0811691,28.0000003 C52.7622009,28.0000003 55.4413602,31.2590672 53.2224934,35.4706216 C52.2607226,37.2961335 50.144347,38 45.6172053,38 L42,38 L42,29.9999998 Z M51.0887447,35.3725862 C53.2441584,32.7199782 51.3957501,30 47.4377115,30 L45,30 L45,33.1490575 C45,34.8810395 45.1828284,36.4826938 45.4062853,36.7082901 C46.1850474,37.4945076 50.1152018,36.5706956 51.0887447,35.3725862 Z" id="path4495"></path>
                </g>
            </g>
        </g>
    </g>
</svg>