<svg width="30px" height="42px" viewBox="0 0 30 42" version="1.1" xmlns="http://www.w3.org/2000/svg" xmlns:xlink="http://www.w3.org/1999/xlink">
    <!-- Generator: Sketch 47.1 (45422) - http://www.bohemiancoding.com/sketch -->
    <desc>Created with Sketch.</desc>
    <defs></defs>
    <g id="Главная" stroke="none" stroke-width="1" fill="none" fill-rule="evenodd">
        <g id="Главная-(Desktop-HD)" transform="translate(-801.000000, -1737.000000)" fill="#5F3B1C">
            <g id="Map" transform="translate(0.000000, 1458.000000)">
                <g id="marker-orange" transform="translate(801.000000, 279.000000)">
                    <g id="marker">
                        <path d="M15.0008837,21.6496648 C11.2594993,21.6496648 8.22326951,18.6260565 8.22326951,14.8959487 C8.22326951,11.1623433 11.2594993,8.14048382 15.0008837,8.14048382 C18.742268,8.14048382 21.7784978,11.1640921 21.7784978,14.8959487 C21.7784978,18.6243078 18.742268,21.6496648 15.0008837,21.6496648 M15.0008837,0 C6.71575847,0 0,6.69250947 0,14.9501603 C0,22.7496357 6.79351988,32.8102594 11.3301915,37.7085398 C13.0250368,39.5359953 14.9991163,42 14.9991163,42 C14.9991163,42 17.1198822,39.5220052 18.9384389,37.6403381 C23.4715758,32.9466628 30,23.5225882 30,14.9501603 C30,6.69250947 23.2842415,0 15.0008837,0" id="Shape" fill-rule="nonzero"></path>
                    </g>
                </g>
            </g>
        </g>
    </g>
</svg>