<?xml version="1.0" standalone="no"?>
<!DOCTYPE svg PUBLIC "-//W3C//DTD SVG 20010904//EN"
 "http://www.w3.org/TR/2001/REC-SVG-20010904/DTD/svg10.dtd">
<svg version="1.0" xmlns="http://www.w3.org/2000/svg"
 width="560.000000pt" height="560.000000pt" viewBox="0 0 560.000000 560.000000"
 preserveAspectRatio="xMidYMid meet">
<metadata>
Created by potrace 1.11, written by Peter Selinger 2001-2013
</metadata>
<g transform="translate(0.000000,560.000000) scale(0.100000,-0.100000)"
fill="#000000" stroke="none">
<path d="M2348 5315 c-1 -1 -41 -5 -88 -9 -47 -4 -96 -8 -110 -10 -14 -2 -50
-6 -80 -10 -169 -22 -360 -75 -540 -149 -97 -41 -288 -137 -334 -169 -6 -4
-49 -33 -96 -64 -365 -242 -681 -606 -883 -1018 -111 -224 -160 -356 -191
-514 -15 -74 -21 -230 -21 -562 1 -337 4 -416 20 -500 3 -14 7 -39 10 -56 5
-35 51 -199 64 -229 4 -11 23 -58 41 -105 31 -80 116 -254 162 -330 32 -52
151 -234 158 -240 3 -3 18 -23 35 -45 123 -166 254 -302 423 -436 103 -83 152
-115 152 -101 0 11 -52 90 -77 117 -41 45 -143 174 -143 181 0 4 -8 17 -19 28
-45 50 -281 502 -281 539 0 8 -3 17 -7 21 -4 3 -13 23 -20 44 -37 102 -64 179
-68 192 -38 151 -48 209 -61 350 -7 76 -7 391 0 465 4 39 9 86 11 105 7 73 17
146 26 188 5 23 12 59 15 80 3 20 7 44 10 52 3 8 8 26 10 40 9 51 74 239 114
331 106 240 251 469 420 663 169 194 350 345 599 500 185 117 495 238 741 291
8 2 35 8 60 14 25 5 68 13 96 16 28 3 61 8 75 10 92 18 435 25 579 12 120 -11
182 -19 250 -31 14 -3 36 -7 50 -9 14 -3 54 -12 90 -21 36 -9 74 -18 85 -21
102 -22 291 -93 428 -161 48 -25 87 -41 87 -36 0 15 -92 103 -150 142 -81 55
-303 170 -445 230 -66 28 -129 55 -140 60 -51 23 -274 99 -309 104 -21 4 -42
8 -46 11 -8 5 -56 14 -115 21 -22 3 -56 8 -75 10 -38 6 -506 14 -512 9z"/>
<path d="M1945 4487 c-198 -82 -391 -196 -545 -320 -87 -70 -247 -229 -305
-302 -21 -27 -42 -52 -45 -55 -34 -32 -168 -237 -229 -352 -71 -133 -166 -367
-187 -460 -2 -10 -7 -28 -10 -40 -5 -22 -20 -87 -30 -138 -21 -99 -31 -237
-28 -395 2 -99 5 -191 8 -205 2 -14 7 -50 11 -80 3 -30 10 -68 15 -85 5 -16
12 -46 15 -65 31 -184 176 -525 309 -723 161 -241 372 -454 616 -623 43 -30
237 -144 244 -144 3 0 38 -16 79 -35 142 -66 347 -133 462 -151 17 -2 44 -7
60 -10 156 -27 566 -26 745 2 56 9 73 12 100 18 14 3 36 8 50 10 14 3 40 9 58
15 18 5 33 9 35 9 1 0 36 10 77 22 75 23 75 23 40 31 -19 4 -153 10 -298 13
-144 3 -266 7 -270 9 -6 4 -74 14 -137 21 -99 11 -366 88 -470 135 -111 51
-186 89 -244 123 -34 21 -67 38 -72 38 -5 0 -9 3 -9 8 -1 4 -25 23 -55 42 -30
19 -55 38 -55 43 0 4 -5 7 -11 7 -24 0 -268 223 -348 319 -20 24 -46 55 -59
70 -37 43 -145 197 -180 259 -44 76 -137 269 -148 307 -2 6 -16 48 -33 95 -27
80 -60 200 -67 245 -8 59 -15 101 -19 112 -12 35 -20 178 -20 343 0 194 5 250
30 390 19 108 20 116 35 170 7 25 11 45 10 45 -1 0 18 54 41 120 49 141 156
362 222 458 26 38 47 71 47 73 0 3 6 11 13 18 6 7 23 28 37 46 95 127 277 310
384 385 15 11 33 25 40 30 6 6 36 29 67 52 62 48 129 112 129 125 0 14 -22 9
-105 -25z"/>
<path d="M3443 3562 c-78 -3 -83 -4 -84 -25 -1 -12 -1 -26 0 -31 1 -6 2 -39 1
-75 0 -36 0 -93 0 -126 0 -33 1 -67 1 -75 0 -8 0 -35 0 -60 0 -25 0 -49 0 -55
0 -99 -1 -194 -1 -210 -1 -11 -1 -26 -1 -32 0 -7 0 -43 0 -80 0 -38 1 -95 1
-128 0 -33 1 -67 0 -75 0 -8 1 -35 1 -60 1 -53 1 -43 -1 -149 -1 -45 2 -87 8
-93 15 -15 466 -9 557 7 73 14 163 39 198 57 158 79 244 337 164 493 -55 108
-199 200 -345 220 -52 7 -184 18 -199 16 -20 -2 -43 -2 -106 -1 l-58 1 6 67
c3 37 8 99 11 137 3 39 6 84 7 100 l2 30 236 1 c249 1 321 7 337 27 15 20 20
53 10 71 -17 30 -60 38 -213 42 -82 2 -171 4 -197 5 -26 2 -50 0 -53 -3 -3 -3
-20 -3 -38 1 -18 4 -48 4 -67 1 -19 -3 -48 -3 -65 0 -16 3 -67 4 -112 2z m530
-672 c75 -27 148 -86 167 -135 54 -141 -27 -292 -185 -346 -22 -7 -42 -14 -45
-14 -3 -1 -25 -7 -50 -14 -61 -18 -169 -23 -203 -9 -17 6 -29 20 -33 37 -3 14
-8 33 -11 41 -4 12 -16 283 -15 350 1 55 5 106 9 113 3 5 71 7 151 5 124 -3
158 -8 215 -28z"/>
<path d="M2359 3552 c-1 -4 0 -11 1 -17 3 -18 14 -638 13 -805 0 -242 -9 -336
-34 -384 -19 -36 -19 -41 -5 -51 8 -7 36 -13 62 -13 25 -1 50 -5 55 -8 5 -3 9
-2 9 3 0 4 32 7 72 6 39 -1 80 3 90 8 18 9 18 13 5 33 -38 57 -49 220 -50 751
l-2 360 101 -1 c85 -1 109 -5 150 -24 91 -44 134 -104 142 -195 11 -144 -66
-264 -193 -302 -23 -6 -30 -14 -30 -33 0 -23 3 -25 40 -22 52 4 111 20 159 43
22 10 46 19 53 19 7 0 13 4 13 9 0 5 8 12 18 15 33 11 118 101 142 152 35 72
34 188 -1 265 -49 104 -124 155 -269 182 -81 15 -539 23 -541 9z"/>
<path d="M5085 3554 c-138 -26 -233 -61 -312 -115 -86 -59 -168 -152 -212
-241 -48 -100 -52 -108 -67 -178 -9 -44 -11 -214 -2 -260 40 -204 157 -372
329 -469 84 -47 231 -81 369 -86 222 -8 339 46 389 179 34 91 36 90 -90 41
-50 -19 -103 -38 -117 -41 -173 -38 -311 -19 -436 61 -148 94 -238 279 -237
484 0 58 5 90 27 191 26 120 196 246 369 275 41 6 139 8 165 2 8 -2 33 -7 55
-12 22 -4 73 -24 113 -43 90 -44 97 -40 97 64 -1 92 -15 110 -106 130 -60 14
-290 26 -334 18z"/>
<path d="M1412 2883 c-11 -21 -23 -60 -26 -86 -4 -27 -9 -59 -12 -70 -3 -18
-17 -334 -16 -372 4 -135 12 -328 16 -353 24 -159 129 -386 260 -562 71 -95
168 -198 266 -280 36 -30 67 -57 70 -60 26 -28 288 -189 315 -194 6 -1 24 -9
40 -18 56 -30 205 -77 308 -99 109 -23 379 -34 474 -19 42 7 125 19 173 25 8
1 29 5 45 8 17 4 39 9 50 12 125 27 455 127 455 138 0 2 -33 4 -72 4 -252 4
-618 14 -648 18 -19 3 -59 7 -88 10 -29 3 -65 7 -80 10 -15 3 -43 8 -62 11
-64 10 -224 52 -300 79 -88 31 -238 101 -262 123 -10 8 -18 12 -18 9 0 -4 -19
7 -42 24 -24 16 -60 41 -80 54 -96 63 -264 225 -358 345 -28 36 -59 74 -68 85
-108 133 -234 468 -267 710 -3 23 -8 52 -10 65 -3 14 -8 97 -11 185 -3 88 -7
169 -9 180 -2 11 -4 28 -4 38 -1 28 -19 19 -39 -20z"/>
</g>
</svg>
